<?xml version="1.0" encoding="utf-8"?>
<!-- Generator: Adobe Illustrator 18.0.0, SVG Export Plug-In . SVG Version: 6.00 Build 0)  -->
<!DOCTYPE svg PUBLIC "-//W3C//DTD SVG 1.1//EN" "http://www.w3.org/Graphics/SVG/1.1/DTD/svg11.dtd">
<svg version="1.1" id="Layer_1" xmlns="http://www.w3.org/2000/svg" xmlns:xlink="http://www.w3.org/1999/xlink" x="0px" y="0px"
	 viewBox="0 0 100 54" enable-background="new 0 0 100 54" xml:space="preserve">
<g>
	<path fill="#FFFFFF" d="M8,8.4V7.8h4.9v0.7h-2v5.4H10V8.4H8z"/>
	<path fill="#FFFFFF" d="M14.1,7.8v2.3h0c0.1-0.1,0.1-0.3,0.2-0.3c0.1-0.1,0.2-0.2,0.3-0.2c0.1-0.1,0.3-0.1,0.4-0.1
		c0.1,0,0.3,0,0.4,0c0.3,0,0.5,0,0.7,0.1c0.2,0.1,0.3,0.2,0.5,0.3c0.1,0.1,0.2,0.3,0.2,0.5c0,0.2,0.1,0.4,0.1,0.7v2.9h-0.7v-3
		c0-0.3-0.1-0.5-0.2-0.6c-0.2-0.2-0.4-0.2-0.7-0.2c-0.2,0-0.4,0-0.6,0.1s-0.3,0.2-0.4,0.3c-0.1,0.1-0.2,0.3-0.2,0.4
		c-0.1,0.2-0.1,0.4-0.1,0.5v2.5h-0.7V7.8H14.1z"/>
	<path fill="#FFFFFF" d="M18.2,8.6V7.8h0.7v0.9H18.2z M18.9,9.4v4.4h-0.7V9.4H18.9z"/>
	<path fill="#FFFFFF" d="M20.6,12.8c0.1,0.1,0.2,0.2,0.3,0.3s0.2,0.1,0.4,0.1s0.3,0,0.4,0c0.1,0,0.2,0,0.4,0c0.1,0,0.2,0,0.3-0.1
		c0.1,0,0.2-0.1,0.3-0.2c0.1-0.1,0.1-0.2,0.1-0.3c0-0.2-0.1-0.3-0.2-0.4C22.4,12.1,22.2,12,22,12s-0.4-0.1-0.7-0.2
		c-0.2,0-0.5-0.1-0.7-0.2c-0.2-0.1-0.4-0.2-0.5-0.4c-0.1-0.2-0.2-0.4-0.2-0.7c0-0.2,0-0.4,0.1-0.6c0.1-0.2,0.2-0.3,0.4-0.4
		c0.2-0.1,0.3-0.2,0.5-0.2s0.4-0.1,0.6-0.1c0.2,0,0.5,0,0.7,0.1c0.2,0,0.4,0.1,0.6,0.2c0.2,0.1,0.3,0.2,0.4,0.4
		c0.1,0.2,0.2,0.4,0.2,0.7h-0.7c0-0.1,0-0.3-0.1-0.4c-0.1-0.1-0.1-0.2-0.2-0.2S22,10,21.9,10c-0.1,0-0.2,0-0.4,0c-0.1,0-0.2,0-0.3,0
		c-0.1,0-0.2,0-0.3,0.1c-0.1,0-0.2,0.1-0.2,0.2c-0.1,0.1-0.1,0.2-0.1,0.3c0,0.1,0,0.2,0.1,0.3s0.2,0.2,0.3,0.2
		c0.1,0.1,0.3,0.1,0.5,0.1s0.3,0.1,0.5,0.1c0.2,0,0.4,0.1,0.5,0.1s0.3,0.1,0.5,0.2s0.2,0.2,0.3,0.4c0.1,0.1,0.1,0.3,0.1,0.5
		c0,0.3-0.1,0.5-0.2,0.7s-0.3,0.3-0.4,0.4s-0.4,0.2-0.6,0.2c-0.2,0-0.4,0.1-0.7,0.1c-0.2,0-0.5,0-0.7-0.1c-0.2-0.1-0.4-0.1-0.6-0.3
		s-0.3-0.3-0.4-0.5c-0.1-0.2-0.2-0.4-0.2-0.7h0.7C20.5,12.6,20.5,12.7,20.6,12.8z"/>
	<path fill="#FFFFFF" d="M26.7,8.6V7.8h0.7v0.9H26.7z M27.4,9.4v4.4h-0.7V9.4H27.4z"/>
	<path fill="#FFFFFF" d="M29.1,12.8c0.1,0.1,0.2,0.2,0.3,0.3s0.2,0.1,0.4,0.1s0.3,0,0.4,0c0.1,0,0.2,0,0.4,0c0.1,0,0.2,0,0.3-0.1
		c0.1,0,0.2-0.1,0.3-0.2c0.1-0.1,0.1-0.2,0.1-0.3c0-0.2-0.1-0.3-0.2-0.4c-0.1-0.1-0.3-0.2-0.5-0.2s-0.4-0.1-0.7-0.2
		c-0.2,0-0.5-0.1-0.7-0.2c-0.2-0.1-0.4-0.2-0.5-0.4c-0.1-0.2-0.2-0.4-0.2-0.7c0-0.2,0-0.4,0.1-0.6c0.1-0.2,0.2-0.3,0.4-0.4
		c0.2-0.1,0.3-0.2,0.5-0.2s0.4-0.1,0.6-0.1c0.2,0,0.5,0,0.7,0.1c0.2,0,0.4,0.1,0.6,0.2c0.2,0.1,0.3,0.2,0.4,0.4
		c0.1,0.2,0.2,0.4,0.2,0.7h-0.7c0-0.1,0-0.3-0.1-0.4c-0.1-0.1-0.1-0.2-0.2-0.2S30.5,10,30.4,10c-0.1,0-0.2,0-0.4,0
		c-0.1,0-0.2,0-0.3,0c-0.1,0-0.2,0-0.3,0.1c-0.1,0-0.2,0.1-0.2,0.2c-0.1,0.1-0.1,0.2-0.1,0.3c0,0.1,0,0.2,0.1,0.3s0.2,0.2,0.3,0.2
		c0.1,0.1,0.3,0.1,0.5,0.1s0.3,0.1,0.5,0.1c0.2,0,0.4,0.1,0.5,0.1s0.3,0.1,0.5,0.2s0.2,0.2,0.3,0.4c0.1,0.1,0.1,0.3,0.1,0.5
		c0,0.3-0.1,0.5-0.2,0.7s-0.3,0.3-0.4,0.4s-0.4,0.2-0.6,0.2c-0.2,0-0.4,0.1-0.7,0.1c-0.2,0-0.5,0-0.7-0.1c-0.2-0.1-0.4-0.1-0.6-0.3
		s-0.3-0.3-0.4-0.5c-0.1-0.2-0.2-0.4-0.2-0.7H29C29,12.6,29,12.7,29.1,12.8z"/>
	<path fill="#FFFFFF" d="M39,13.8c-0.1,0.1-0.3,0.1-0.5,0.1c-0.2,0-0.3-0.1-0.4-0.2c-0.1-0.1-0.2-0.3-0.2-0.5
		c-0.2,0.2-0.4,0.4-0.7,0.5c-0.3,0.1-0.5,0.2-0.9,0.2c-0.2,0-0.4,0-0.6-0.1c-0.2,0-0.3-0.1-0.5-0.2c-0.1-0.1-0.2-0.2-0.3-0.4
		c-0.1-0.2-0.1-0.3-0.1-0.6c0-0.2,0-0.5,0.1-0.6s0.2-0.3,0.3-0.4c0.1-0.1,0.3-0.2,0.5-0.2s0.4-0.1,0.5-0.1c0.2,0,0.4-0.1,0.6-0.1
		c0.2,0,0.3,0,0.5-0.1c0.1,0,0.2-0.1,0.3-0.2c0.1-0.1,0.1-0.2,0.1-0.3c0-0.2,0-0.3-0.1-0.4c-0.1-0.1-0.1-0.2-0.2-0.2
		C37.5,10,37.4,10,37.2,10c-0.1,0-0.2,0-0.3,0c-0.3,0-0.6,0.1-0.8,0.2s-0.3,0.3-0.3,0.7h-0.7c0-0.3,0.1-0.5,0.2-0.7
		c0.1-0.2,0.2-0.3,0.4-0.5s0.4-0.2,0.6-0.3c0.2-0.1,0.5-0.1,0.7-0.1c0.2,0,0.4,0,0.6,0c0.2,0,0.4,0.1,0.5,0.2
		c0.2,0.1,0.3,0.2,0.4,0.4s0.1,0.4,0.1,0.6v2.3c0,0.2,0,0.3,0,0.4c0,0.1,0.1,0.1,0.2,0.1c0.1,0,0.1,0,0.2,0V13.8z M37.9,11.6
		c-0.1,0.1-0.2,0.1-0.4,0.1s-0.3,0.1-0.5,0.1c-0.2,0-0.3,0-0.5,0.1s-0.3,0.1-0.4,0.1c-0.1,0.1-0.2,0.1-0.3,0.2
		c-0.1,0.1-0.1,0.2-0.1,0.4c0,0.1,0,0.2,0.1,0.3c0,0.1,0.1,0.1,0.2,0.2c0.1,0.1,0.2,0.1,0.3,0.1c0.1,0,0.2,0,0.3,0
		c0.2,0,0.4,0,0.6-0.1c0.2-0.1,0.3-0.1,0.4-0.2s0.2-0.2,0.2-0.3c0.1-0.1,0.1-0.2,0.1-0.3V11.6z"/>
</g>
<g>
	<path fill="#FFFFFF" d="M16.4,19.9c-0.6-0.4-1.3-0.6-2.1-0.6c-0.7,0-1.3,0.1-1.8,0.4c-0.5,0.3-0.9,0.6-1.2,1.1s-0.6,1-0.7,1.5
		c-0.2,0.6-0.2,1.2-0.2,1.8c0,0.7,0.1,1.3,0.2,1.9c0.2,0.6,0.4,1.1,0.7,1.6c0.3,0.4,0.7,0.8,1.2,1.1c0.5,0.3,1.1,0.4,1.8,0.4
		c0.5,0,1-0.1,1.4-0.3s0.7-0.4,1-0.7c0.3-0.3,0.5-0.7,0.7-1.1s0.3-0.9,0.3-1.4h1.6c-0.2,1.5-0.7,2.6-1.5,3.5
		c-0.9,0.8-2.1,1.2-3.6,1.2c-0.9,0-1.7-0.2-2.4-0.5c-0.7-0.3-1.2-0.7-1.7-1.3s-0.8-1.2-1-1.9S8.7,25,8.7,24.2c0-0.9,0.1-1.7,0.4-2.4
		s0.6-1.4,1.1-2c0.5-0.6,1.1-1,1.7-1.3s1.5-0.5,2.4-0.5c0.6,0,1.2,0.1,1.7,0.2s1,0.4,1.5,0.7c0.4,0.3,0.8,0.7,1.1,1.2s0.5,1,0.6,1.7
		h-1.6C17.4,21,17,20.3,16.4,19.9z"/>
	<path fill="#FFFFFF" d="M22.4,18.2v4.5h0c0.1-0.3,0.3-0.5,0.5-0.7c0.2-0.2,0.4-0.3,0.7-0.4c0.2-0.1,0.5-0.2,0.8-0.3
		s0.5-0.1,0.8-0.1c0.6,0,1,0.1,1.4,0.2c0.4,0.2,0.7,0.4,0.9,0.6c0.2,0.3,0.4,0.6,0.5,1S28,24,28,24.4V30h-1.4v-5.8
		c0-0.5-0.2-0.9-0.5-1.3c-0.3-0.3-0.7-0.5-1.3-0.5c-0.4,0-0.8,0.1-1.1,0.2S23.2,23,23,23.3c-0.2,0.2-0.4,0.5-0.5,0.8
		s-0.2,0.7-0.2,1.1V30H21V18.2H22.4z"/>
	<path fill="#FFFFFF" d="M31.4,21.5v1.8h0c0.3-0.7,0.8-1.2,1.3-1.5s1.1-0.5,1.9-0.5v1.5c-0.6,0-1,0.1-1.4,0.2
		c-0.4,0.2-0.7,0.4-1,0.7c-0.2,0.3-0.4,0.7-0.5,1.1c-0.1,0.4-0.2,0.9-0.2,1.5V30h-1.4v-8.5H31.4z"/>
	<path fill="#FFFFFF" d="M35.1,24c0.2-0.5,0.4-1,0.8-1.4c0.4-0.4,0.8-0.7,1.3-0.9c0.5-0.2,1.1-0.3,1.8-0.3c0.7,0,1.3,0.1,1.8,0.3
		c0.5,0.2,0.9,0.5,1.3,0.9c0.4,0.4,0.6,0.9,0.8,1.4c0.2,0.5,0.3,1.1,0.3,1.8s-0.1,1.2-0.3,1.7c-0.2,0.5-0.4,1-0.8,1.4
		c-0.4,0.4-0.8,0.7-1.3,0.9c-0.5,0.2-1.1,0.3-1.8,0.3c-0.7,0-1.3-0.1-1.8-0.3c-0.5-0.2-1-0.5-1.3-0.9c-0.4-0.4-0.6-0.9-0.8-1.4
		c-0.2-0.5-0.3-1.1-0.3-1.7S35,24.6,35.1,24z M36.6,27.1c0.1,0.4,0.3,0.7,0.6,1s0.5,0.5,0.8,0.6c0.3,0.1,0.7,0.2,1,0.2
		s0.7-0.1,1-0.2c0.3-0.1,0.6-0.3,0.8-0.6s0.4-0.6,0.6-1s0.2-0.9,0.2-1.4c0-0.5-0.1-1-0.2-1.4c-0.1-0.4-0.3-0.7-0.6-1
		c-0.2-0.3-0.5-0.5-0.8-0.6c-0.3-0.1-0.7-0.2-1-0.2s-0.7,0.1-1,0.2c-0.3,0.1-0.6,0.4-0.8,0.6c-0.2,0.3-0.4,0.6-0.6,1
		c-0.1,0.4-0.2,0.9-0.2,1.4C36.4,26.3,36.4,26.7,36.6,27.1z"/>
	<path fill="#FFFFFF" d="M46.1,21.5v1.3h0c0.6-1,1.6-1.5,2.8-1.5c0.5,0,1,0.1,1.4,0.3c0.4,0.2,0.7,0.6,0.9,1.1
		c0.3-0.5,0.7-0.8,1.1-1.1s1-0.4,1.5-0.4c0.4,0,0.8,0,1.2,0.1s0.6,0.2,0.9,0.4c0.2,0.2,0.4,0.5,0.6,0.8c0.1,0.3,0.2,0.7,0.2,1.1V30
		h-1.4v-5.6c0-0.3,0-0.5-0.1-0.7c0-0.2-0.1-0.4-0.2-0.6c-0.1-0.2-0.3-0.3-0.5-0.4c-0.2-0.1-0.5-0.1-0.8-0.1c-0.7,0-1.2,0.2-1.6,0.6
		c-0.4,0.4-0.6,0.9-0.6,1.6V30h-1.4v-5.6c0-0.3,0-0.5-0.1-0.8c0-0.2-0.1-0.4-0.3-0.6c-0.1-0.2-0.3-0.3-0.5-0.4
		c-0.2-0.1-0.5-0.1-0.8-0.1c-0.4,0-0.8,0.1-1,0.2c-0.3,0.2-0.5,0.4-0.7,0.6c-0.2,0.2-0.3,0.5-0.4,0.7c-0.1,0.2-0.1,0.5-0.1,0.6V30
		h-1.4v-8.5H46.1z"/>
	<path fill="#FFFFFF" d="M64.9,29.5c-0.6,0.5-1.4,0.7-2.4,0.7c-0.7,0-1.3-0.1-1.8-0.3s-0.9-0.5-1.3-0.9c-0.3-0.4-0.6-0.9-0.8-1.4
		c-0.2-0.5-0.3-1.1-0.3-1.8c0-0.6,0.1-1.2,0.3-1.8c0.2-0.5,0.5-1,0.8-1.4c0.4-0.4,0.8-0.7,1.3-0.9c0.5-0.2,1-0.3,1.6-0.3
		c0.8,0,1.4,0.2,1.9,0.5c0.5,0.3,0.9,0.7,1.2,1.2s0.5,1,0.6,1.6s0.2,1.1,0.1,1.6h-6.4c0,0.4,0,0.7,0.1,1.1c0.1,0.3,0.3,0.6,0.5,0.9
		c0.2,0.3,0.5,0.5,0.8,0.6c0.3,0.2,0.7,0.2,1.2,0.2c0.6,0,1.1-0.1,1.5-0.4c0.4-0.3,0.6-0.7,0.8-1.3h1.4C66,28.3,65.6,29,64.9,29.5z
		 M64.6,24c-0.1-0.3-0.3-0.6-0.5-0.8c-0.2-0.2-0.5-0.4-0.8-0.5c-0.3-0.1-0.6-0.2-1-0.2c-0.4,0-0.7,0.1-1,0.2
		c-0.3,0.1-0.5,0.3-0.8,0.5s-0.4,0.5-0.5,0.8c-0.1,0.3-0.2,0.6-0.2,0.9h4.9C64.8,24.6,64.7,24.3,64.6,24z"/>
</g>
<g>
	<path fill="#FFFFFF" d="M17.4,34.9v1.3h-6.6v3.7H17v1.3h-6.1v4.1h6.6v1.3H9.3V34.9H17.4z"/>
	<path fill="#FFFFFF" d="M18.5,38.1h1.8l2,3l2.1-3h1.7L23.2,42l3.3,4.6h-1.8l-2.4-3.5l-2.4,3.5h-1.7l3.2-4.5L18.5,38.1z"/>
	<path fill="#FFFFFF" d="M29.1,38.1v1.2h0c0.2-0.5,0.6-0.8,1.1-1c0.5-0.2,1-0.3,1.6-0.3c0.7,0,1.2,0.1,1.7,0.4
		c0.5,0.2,0.9,0.6,1.2,1c0.3,0.4,0.6,0.9,0.7,1.4s0.2,1.1,0.2,1.7c0,0.6-0.1,1.2-0.2,1.7s-0.4,1-0.7,1.4c-0.3,0.4-0.7,0.7-1.2,0.9
		s-1.1,0.3-1.7,0.3c-0.2,0-0.4,0-0.7-0.1c-0.3,0-0.5-0.1-0.8-0.2c-0.3-0.1-0.5-0.2-0.7-0.4c-0.2-0.2-0.4-0.4-0.6-0.6h0v4.4h-1.4
		V38.1H29.1z M34.2,41.1c-0.1-0.4-0.3-0.7-0.5-1s-0.5-0.5-0.8-0.7s-0.7-0.3-1.2-0.3c-0.5,0-0.9,0.1-1.2,0.3
		c-0.3,0.2-0.6,0.4-0.8,0.7c-0.2,0.3-0.4,0.6-0.5,1c-0.1,0.4-0.1,0.8-0.1,1.2c0,0.4,0,0.8,0.1,1.2c0.1,0.4,0.3,0.7,0.5,1
		s0.5,0.5,0.8,0.7s0.8,0.3,1.2,0.3c0.5,0,0.9-0.1,1.2-0.3c0.3-0.2,0.6-0.4,0.8-0.7s0.3-0.7,0.4-1.1c0.1-0.4,0.1-0.8,0.1-1.2
		C34.3,41.9,34.3,41.5,34.2,41.1z"/>
	<path fill="#FFFFFF" d="M43.5,46.1c-0.6,0.5-1.4,0.7-2.4,0.7c-0.7,0-1.3-0.1-1.8-0.3s-0.9-0.5-1.3-0.9c-0.3-0.4-0.6-0.9-0.8-1.4
		C37.1,43.6,37,43,37,42.3c0-0.6,0.1-1.2,0.3-1.8c0.2-0.5,0.5-1,0.8-1.4c0.4-0.4,0.8-0.7,1.3-0.9c0.5-0.2,1-0.3,1.6-0.3
		c0.8,0,1.4,0.2,1.9,0.5c0.5,0.3,0.9,0.7,1.2,1.2c0.3,0.5,0.5,1,0.6,1.6c0.1,0.6,0.2,1.1,0.1,1.6h-6.4c0,0.4,0,0.7,0.1,1.1
		c0.1,0.3,0.3,0.6,0.5,0.9c0.2,0.3,0.5,0.5,0.8,0.6c0.3,0.2,0.7,0.2,1.2,0.2c0.6,0,1.1-0.1,1.5-0.4c0.4-0.3,0.6-0.7,0.8-1.3h1.4
		C44.6,44.9,44.1,45.6,43.5,46.1z M43.2,40.6c-0.1-0.3-0.3-0.6-0.5-0.8c-0.2-0.2-0.5-0.4-0.8-0.5c-0.3-0.1-0.6-0.2-1-0.2
		c-0.4,0-0.7,0.1-1,0.2c-0.3,0.1-0.5,0.3-0.8,0.5s-0.4,0.5-0.5,0.8c-0.1,0.3-0.2,0.6-0.2,0.9h4.9C43.4,41.2,43.3,40.9,43.2,40.6z"/>
	<path fill="#FFFFFF" d="M47.6,38.1v1.8h0c0.3-0.7,0.8-1.2,1.3-1.5s1.1-0.5,1.9-0.5v1.5c-0.6,0-1,0.1-1.4,0.2
		c-0.4,0.2-0.7,0.4-1,0.7c-0.2,0.3-0.4,0.7-0.5,1.1c-0.1,0.4-0.2,0.9-0.2,1.5v3.8h-1.4v-8.5H47.6z"/>
	<path fill="#FFFFFF" d="M51.9,36.6v-1.7h1.4v1.7H51.9z M53.3,38.1v8.5h-1.4v-8.5H53.3z"/>
	<path fill="#FFFFFF" d="M56.8,38.1v1.3h0c0.6-1,1.6-1.5,2.8-1.5c0.5,0,1,0.1,1.4,0.3c0.4,0.2,0.7,0.6,0.9,1.1
		c0.3-0.5,0.7-0.8,1.1-1.1s1-0.4,1.5-0.4c0.4,0,0.8,0,1.2,0.1c0.3,0.1,0.6,0.2,0.9,0.4c0.2,0.2,0.4,0.5,0.6,0.8
		c0.1,0.3,0.2,0.7,0.2,1.1v6.3H66V41c0-0.3,0-0.5-0.1-0.7c0-0.2-0.1-0.4-0.2-0.6c-0.1-0.2-0.3-0.3-0.5-0.4c-0.2-0.1-0.5-0.1-0.8-0.1
		c-0.7,0-1.2,0.2-1.6,0.6c-0.4,0.4-0.6,0.9-0.6,1.6v5.3h-1.4V41c0-0.3,0-0.5-0.1-0.8s-0.1-0.4-0.3-0.6c-0.1-0.2-0.3-0.3-0.5-0.4
		c-0.2-0.1-0.5-0.1-0.8-0.1c-0.4,0-0.8,0.1-1,0.2c-0.3,0.2-0.5,0.4-0.7,0.6c-0.2,0.2-0.3,0.5-0.4,0.7c-0.1,0.2-0.1,0.5-0.1,0.6v5.3
		h-1.4v-8.5H56.8z"/>
	<path fill="#FFFFFF" d="M75.6,46.1c-0.6,0.5-1.4,0.7-2.4,0.7c-0.7,0-1.3-0.1-1.8-0.3s-0.9-0.5-1.3-0.9c-0.3-0.4-0.6-0.9-0.8-1.4
		c-0.2-0.5-0.3-1.1-0.3-1.8c0-0.6,0.1-1.2,0.3-1.8c0.2-0.5,0.5-1,0.8-1.4c0.4-0.4,0.8-0.7,1.3-0.9c0.5-0.2,1-0.3,1.6-0.3
		c0.8,0,1.4,0.2,1.9,0.5c0.5,0.3,0.9,0.7,1.2,1.2c0.3,0.5,0.5,1,0.6,1.6c0.1,0.6,0.2,1.1,0.1,1.6h-6.4c0,0.4,0,0.7,0.1,1.1
		c0.1,0.3,0.3,0.6,0.5,0.9c0.2,0.3,0.5,0.5,0.8,0.6c0.3,0.2,0.7,0.2,1.2,0.2c0.6,0,1.1-0.1,1.5-0.4c0.4-0.3,0.6-0.7,0.8-1.3h1.4
		C76.6,44.9,76.2,45.6,75.6,46.1z M75.3,40.6c-0.1-0.3-0.3-0.6-0.5-0.8c-0.2-0.2-0.5-0.4-0.8-0.5c-0.3-0.1-0.6-0.2-1-0.2
		c-0.4,0-0.7,0.1-1,0.2c-0.3,0.1-0.5,0.3-0.8,0.5s-0.4,0.5-0.5,0.8c-0.1,0.3-0.2,0.6-0.2,0.9h4.9C75.5,41.2,75.4,40.9,75.3,40.6z"/>
	<path fill="#FFFFFF" d="M79.7,38.1v1.4h0c0.6-1,1.5-1.6,2.8-1.6c0.6,0,1,0.1,1.4,0.2c0.4,0.2,0.7,0.4,0.9,0.6
		c0.2,0.3,0.4,0.6,0.5,1c0.1,0.4,0.1,0.8,0.1,1.3v5.6h-1.4v-5.8c0-0.5-0.2-0.9-0.5-1.3c-0.3-0.3-0.7-0.5-1.3-0.5
		c-0.4,0-0.8,0.1-1.1,0.2s-0.6,0.3-0.8,0.6c-0.2,0.2-0.4,0.5-0.5,0.9c-0.1,0.3-0.2,0.7-0.2,1.1v4.8h-1.4v-8.5H79.7z"/>
	<path fill="#FFFFFF" d="M91.2,38.1v1.2h-1.7v5.3c0,0.2,0,0.3,0,0.4s0.1,0.2,0.2,0.2c0.1,0.1,0.2,0.1,0.3,0.1c0.1,0,0.3,0,0.5,0h0.6
		v1.2h-1.1c-0.4,0-0.7,0-0.9-0.1c-0.3,0-0.5-0.1-0.6-0.3c-0.2-0.1-0.3-0.3-0.4-0.6s-0.1-0.6-0.1-1v-5.4h-1.5v-1.2h1.5v-2.6h1.4v2.6
		H91.2z"/>
</g>
</svg>
